<svg width="76" height="76" viewBox="0 0 76 76" fill="none" xmlns="http://www.w3.org/2000/svg">
<path fill-rule="evenodd" clip-rule="evenodd" d="M16.2904 0.5C16.8654 0.5 17.8236 0.595826 18.4465 0.723594C19.0694 0.867333 20.0276 1.20272 20.6026 1.4902C21.2734 1.80962 22.1038 2.44846 24.196 4.47678L25.6334 4.73231C26.6236 4.92396 28.0291 5.00382 30.1053 5.01979C33.1079 5.03576 33.1398 5.03576 33.9064 5.48295C34.3217 5.72251 34.8806 6.21761 35.1521 6.60092C35.4236 6.96825 35.7271 7.44738 35.807 7.67097C35.9028 7.89457 36.0305 8.61326 36.1743 10.4659L36.893 10.6895C37.2923 10.8013 37.8992 11.0089 38.2505 11.1207C38.6019 11.2325 39.2088 11.5998 39.5921 11.9352C39.9754 12.2706 40.4865 12.9095 41.1253 14.1392V20.7672C41.1253 27.1715 41.1093 27.4431 40.758 28.8325C40.5503 29.6151 40.1191 30.8449 39.7837 31.5476C39.4643 32.2503 38.9532 33.1926 38.6498 33.6238C38.3463 34.071 37.6276 34.9175 37.0527 35.5244C36.4777 36.1313 35.5834 36.9298 35.0563 37.3131C34.5293 37.6805 33.4912 38.2874 32.7405 38.6387C31.9899 38.9901 30.808 39.4532 30.1053 39.6289C29.0832 39.9164 28.3645 39.9803 26.5118 39.9963C24.5953 39.9963 23.9725 39.9324 22.8385 39.6289C22.0879 39.4373 20.906 39.0061 20.2033 38.6707C19.5006 38.3193 18.3507 37.6166 17.6479 37.1055C16.9452 36.5785 16.0029 35.716 15.5557 35.205C15.1086 34.6779 14.5017 33.9113 14.2142 33.4641C13.9107 33.0329 13.4476 32.1705 13.1601 31.5476C12.8726 30.9247 12.4733 29.8866 12.2817 29.2318C11.9623 28.1298 11.9144 27.6507 11.8185 18.4514L11.2116 18.0361C10.8922 17.8125 10.3332 17.3334 9.98187 16.998C9.63051 16.6626 9.15138 16.1196 8.91181 15.8162C8.67225 15.5127 8.27297 14.81 8.00146 14.267C7.72996 13.708 7.39457 12.8136 7.2668 12.2706C7.13903 11.7116 7.02723 10.7214 7.02723 10.0666C7.02723 9.41181 7.13903 8.40564 7.28277 7.83068C7.41054 7.25573 7.77787 6.24956 8.11326 5.59474C8.52851 4.74828 9.02361 4.06153 9.82216 3.27895C10.5568 2.52832 11.3394 1.95336 12.1379 1.53811C12.7928 1.20272 13.767 0.81942 14.294 0.707623C14.8211 0.595826 15.7155 0.5 16.2904 0.5ZM49.5899 3.24701C52.5925 3.31089 53.1195 3.35881 54.6208 3.75808C55.5471 3.99765 56.9366 4.47678 57.7351 4.81217C58.5337 5.16353 59.7794 5.81834 60.5141 6.2815C61.3765 6.80854 62.5104 7.75083 63.6604 8.8688C64.6346 9.84303 65.8005 11.1686 66.2317 11.8234C66.6789 12.4782 67.3017 13.5483 67.6212 14.1871C67.9406 14.81 68.4037 15.9599 68.6593 16.7425C68.9148 17.5091 69.2183 18.5792 69.5536 20.1283L69.9529 19.745C70.1765 19.5374 70.5119 19.2819 70.7195 19.1861C70.9112 19.0902 71.2625 19.0104 71.5181 19.0104C71.7576 19.0104 72.1889 19.1541 72.4763 19.3298C72.7478 19.5055 73.0992 19.9207 73.243 20.2561C73.4506 20.7352 73.4665 20.9588 73.3228 21.4539C73.195 21.9011 72.8117 22.3323 71.6938 23.2906C70.8792 23.9614 69.8092 24.8558 69.2981 25.287C68.6114 25.83 68.2121 26.0376 67.8447 26.0376C67.5413 26.0536 67.1101 25.8939 66.8386 25.6862C66.583 25.4946 65.513 24.6322 64.4749 23.7697C63.4527 22.9073 62.4945 21.981 62.3667 21.7254C62.2389 21.4699 62.1271 21.0866 62.1271 20.895C62.1271 20.6873 62.2868 20.2721 62.4945 19.9686C62.6861 19.6652 63.0375 19.3138 63.2451 19.218C63.4687 19.1062 63.868 19.0104 64.1235 19.0104C64.3791 19.0104 64.7624 19.1222 64.97 19.2499C65.1616 19.3777 65.3533 19.4416 65.3852 19.3777C65.4172 19.2979 65.2894 18.7548 65.0977 18.132C64.8901 17.5091 64.5547 16.6147 64.3152 16.1356C64.0916 15.6565 63.5965 14.794 63.2291 14.2191C62.8618 13.6441 62.0153 12.622 61.3446 11.9193C60.6738 11.2325 59.6996 10.3541 59.1725 9.98677C58.6455 9.60346 57.5275 8.96462 56.697 8.56535C55.8665 8.16607 54.5729 7.68694 53.8222 7.49529C52.7681 7.23976 51.746 7.12796 49.2705 7.0481C47.2262 6.98422 45.9485 6.87242 45.709 6.74466C45.5173 6.64883 45.2458 6.39329 45.118 6.20164C44.9903 5.99402 44.8625 5.51489 44.8625 5.11562C44.8625 4.63649 44.9583 4.26915 45.166 3.99765C45.3257 3.77405 45.6451 3.50255 45.8527 3.39075C46.1402 3.23104 47.0346 3.1991 49.5899 3.24701ZM52.9438 15.2732C53.1994 15.3211 53.5827 15.4648 53.7903 15.5926C53.9819 15.7204 54.2534 16.0717 54.3812 16.3752C54.509 16.6786 54.6208 17.0459 54.6208 17.1737C54.6208 17.3015 54.493 17.6688 54.3493 17.9882C54.1896 18.3077 53.8701 18.675 53.6306 18.7868C53.375 18.9145 52.9119 19.0104 52.5925 19.0104C52.2571 19.0104 51.8259 18.8986 51.6342 18.7708C51.4266 18.643 51.1551 18.2917 51.0113 18.0202C50.8357 17.6528 50.7718 17.2855 50.8516 16.8543C50.8995 16.5029 51.0433 16.0717 51.1551 15.912C51.2669 15.7363 51.6182 15.5127 51.9217 15.385C52.2251 15.2732 52.6883 15.2253 52.9438 15.2732ZM54.2215 35.3168C60.4023 35.3168 65.6727 35.3647 66.4393 35.4605C67.4135 35.5723 68.0843 35.7639 68.835 36.1313C69.4259 36.4188 70.2564 37.0097 70.7674 37.5207C71.2625 38.0159 71.8535 38.7984 72.0771 39.2616C72.3326 39.7567 73.0832 42.3759 73.9457 45.8416C74.7442 49.0039 75.3831 51.9106 75.3831 52.3099C75.3831 52.7092 75.3032 53.4119 75.2074 53.875C75.1115 54.3222 74.84 55.1048 74.6005 55.5839C74.3769 56.0631 73.786 56.8776 73.3068 57.3887C72.6999 58.0275 72.0771 58.5066 71.3105 58.874C70.6876 59.1774 70.0647 59.417 69.921 59.417C69.7613 59.417 69.6335 59.4649 69.6335 59.5447C69.6335 59.6086 69.889 61.3814 70.2085 63.4896C70.7515 67.0192 70.7834 67.4184 70.6237 68.6003C70.4959 69.5106 70.2564 70.2453 69.8092 71.1556C69.4578 71.8584 68.8509 72.7687 68.4517 73.1999C68.0364 73.6152 67.3337 74.2061 66.8865 74.5096C66.4233 74.813 65.6088 75.2282 65.0818 75.4199C64.1395 75.7713 64.0117 75.7872 55.0999 75.8352C48.7914 75.8671 45.7888 75.8351 45.118 75.7074C44.591 75.6115 43.6327 75.2762 43.0099 74.9727C42.1953 74.5894 41.5246 74.1103 40.8059 73.3916C40.0712 72.6569 39.608 72.0021 39.2247 71.2036C38.9213 70.5647 38.6019 69.6544 38.5061 69.2072C38.4102 68.744 38.3304 68.0094 38.3304 67.5622C38.3304 67.131 38.554 65.3103 38.8095 63.5375C39.081 61.7487 39.3365 60.1037 39.3685 59.8642C39.4324 59.5128 39.3845 59.417 39.1768 59.417C39.0171 59.417 38.3943 59.1774 37.7714 58.874C37.1485 58.5705 36.3021 57.9636 35.8549 57.5324C35.4236 57.1012 34.8487 56.3505 34.5932 55.8874C34.3376 55.4083 34.0342 54.6736 33.9064 54.2264C33.7946 53.7952 33.6988 52.9487 33.6988 52.3578C33.6988 51.5273 34.0182 49.9781 35.0563 45.8097C36.0305 41.8968 36.5736 40.0442 36.9409 39.3095C37.2284 38.7345 37.8193 37.936 38.3304 37.4569C38.8095 36.9937 39.6719 36.3868 40.2469 36.1153C40.8218 35.8438 41.7482 35.5563 42.3231 35.4765C42.8981 35.3966 48.2484 35.3327 54.2215 35.3168ZM26.991 41.9767C27.3902 42.0086 28.2527 42.1364 28.9075 42.2801C29.5623 42.4079 30.4726 42.6953 30.9039 42.887C31.351 43.0787 31.8461 43.3981 32.0218 43.6057C32.2614 43.8612 32.3412 44.1806 32.3412 44.8355C32.3412 45.618 32.2933 45.7618 31.8302 46.177C31.5427 46.4326 31.1115 46.6881 30.8719 46.752C30.5685 46.8159 29.9456 46.6881 28.9554 46.3527C28.0291 46.0333 27.1507 45.8416 26.6396 45.8416C26.1764 45.8416 25.5057 45.9215 25.1543 46.0173C24.8029 46.1131 23.669 46.5444 20.7623 47.7581L21.6247 49.483C22.1358 50.4892 22.7427 51.4315 23.11 51.7828C23.4454 52.1023 24.0363 52.5175 24.4356 52.6932C24.8509 52.8848 25.5057 53.0286 25.9529 53.0286C26.4 53.0286 27.1347 52.8848 27.5979 52.7092C28.2527 52.4536 28.5561 52.4217 29.0353 52.5335C29.3866 52.6293 29.8338 52.9168 30.1532 53.2522C30.5525 53.7153 30.6643 53.9709 30.6643 54.5139C30.6643 54.9451 30.5525 55.3763 30.3129 55.7436C30.0414 56.1589 29.722 56.3825 29.0991 56.5901C28.652 56.7338 27.7416 56.9095 27.1187 56.9574C26.2882 57.0373 25.6015 56.9894 24.755 56.7977C24.1002 56.654 23.094 56.3186 22.5191 56.0471C21.8004 55.7117 21.1296 55.2006 20.347 54.4181C19.4207 53.4758 19.0374 52.9168 18.2389 51.3197C17.6959 50.2337 17.2008 49.3552 17.1369 49.3552C17.057 49.3552 14.6773 50.3295 11.8185 51.5433C8.95972 52.7411 6.45228 53.8431 6.22868 54.0028C6.00509 54.1625 5.6697 54.5618 5.47805 54.8972C5.1746 55.4083 5.01489 56.3665 4.45591 60.7745C4.02469 64.2562 3.83304 66.3484 3.89692 66.9233C3.94483 67.4025 4.16843 68.201 4.39202 68.6801C4.61562 69.1593 5.14266 69.8939 5.5579 70.3092C5.97315 70.7404 6.73976 71.2674 8.22506 71.9542L21.6407 72.034C34.0821 72.1139 35.1042 72.1299 35.5035 72.4014C35.7431 72.5451 36.0465 72.9444 36.1903 73.2798C36.4139 73.7909 36.4298 73.9506 36.2382 74.5096C36.0944 74.9088 35.807 75.2762 34.8966 75.8831L21.7205 75.8671C8.94375 75.8671 8.51254 75.8671 7.2668 75.5477C6.56408 75.356 5.5579 74.9887 5.03086 74.7012C4.47188 74.4137 3.56153 73.695 2.87478 72.9923C2.17205 72.3056 1.45336 71.3952 1.16588 70.8362C0.878404 70.3092 0.511072 69.303 0.31942 68.6003C0.143739 67.8976 0 66.9393 0 66.4921C0 66.029 0.287478 63.2979 0.638839 60.4231C0.990201 57.5324 1.38948 54.8333 1.51724 54.3861C1.64501 53.9549 1.94846 53.2681 2.204 52.8689C2.44356 52.4696 2.93866 51.8787 3.29002 51.5273C3.62541 51.1919 4.20037 50.7447 4.55173 50.5531C4.90309 50.3455 9.37497 48.413 14.5017 46.2569C19.6124 44.0848 24.1002 42.2641 24.4835 42.1683C24.8509 42.0884 25.4098 41.9926 25.7133 41.9767C26.0167 41.9447 26.5917 41.9447 26.991 41.9767Z" fill="#344054"/>
<path fill-rule="evenodd" clip-rule="evenodd" d="M16.6099 4.3808C17.3126 4.41274 18.0952 4.55648 18.5264 4.74813C18.9257 4.90784 19.5965 5.371 20.0117 5.77027C20.4589 6.16955 20.986 6.88824 21.2575 7.43125C21.513 7.9583 21.8484 8.93253 21.9921 9.58734C22.1998 10.5456 22.3595 10.881 22.7907 11.2962C23.2219 11.7434 23.4455 11.8233 24.0524 11.8233C24.6753 11.8233 24.8669 11.7434 25.3301 11.2643C25.8411 10.7372 25.8731 10.6574 25.7932 8.62908L26.2724 8.74088C26.5279 8.80476 27.9653 8.85267 32.1816 8.86864L32.2934 10.0186C32.3733 10.6574 32.5809 11.5518 32.7725 12.0149C32.9961 12.4941 33.4114 13.069 33.7787 13.3725C34.1301 13.6759 34.8009 14.0592 35.264 14.2189C35.7112 14.3946 36.2382 14.5383 36.4139 14.5383C36.5896 14.5383 36.8771 14.6821 37.0528 14.8578C37.3562 15.1612 37.3722 15.3529 37.3243 21.1982C37.2764 26.3728 37.2284 27.379 36.9889 28.1935C36.8292 28.7206 36.5098 29.5511 36.2702 30.0302C36.0306 30.5093 35.6154 31.228 35.3439 31.6273C35.0724 32.0266 34.4016 32.7772 33.8426 33.3043C33.2836 33.8313 32.3573 34.534 31.7823 34.8534C31.2074 35.1729 30.2491 35.5881 29.6263 35.7798C29.0034 35.9714 27.9014 36.1631 27.1508 36.211C26.1925 36.2749 25.3939 36.2269 24.4357 36.0353C23.6851 35.8916 22.615 35.5402 22.04 35.2847C21.4651 35.0131 20.5547 34.4861 19.9958 34.0868C19.4527 33.7035 18.6382 32.9369 18.191 32.3779C17.7279 31.8349 17.121 30.8926 16.8016 30.2698C16.4981 29.6469 16.1148 28.6088 15.9551 27.954C15.6996 26.9638 15.6516 26.1652 15.6516 19.7289L19.3569 19.6171C21.4012 19.5692 23.7969 19.3935 24.6753 19.2658C25.5537 19.122 26.991 18.8345 27.8695 18.6109C29.1471 18.3075 29.5624 18.1318 29.9457 17.7325C30.329 17.3492 30.4248 17.1097 30.4248 16.5667C30.4248 16.1834 30.297 15.6883 30.1533 15.4487C29.9936 15.2091 29.5943 14.9057 29.2749 14.7619C28.6999 14.5064 28.5722 14.5224 26.8313 14.9216C25.8252 15.1612 24.4996 15.4167 23.8767 15.5126C23.2538 15.5924 21.2575 15.7202 19.4048 15.7681C16.4662 15.848 15.9232 15.816 15.0128 15.5605C14.374 15.3848 13.6553 15.0334 13.1761 14.6501C12.7449 14.3147 12.138 13.7079 11.8506 13.2926C11.5631 12.8774 11.2277 12.1746 11.0839 11.7434C10.9562 11.2962 10.8604 10.5456 10.8604 10.0665C10.8604 9.58734 10.9562 8.82073 11.0839 8.38951C11.2117 7.94233 11.5631 7.2396 11.8506 6.79241C12.138 6.3612 12.7449 5.72236 13.1761 5.40294C13.6233 5.06755 14.2941 4.68424 14.6934 4.55648C15.1565 4.39677 15.8433 4.33288 16.6099 4.3808ZM47.1145 39.1337V39.5329C47.1145 39.7565 46.7951 42.5674 46.3958 45.8095C45.9965 49.0357 45.6132 52.134 45.5174 52.709C45.4216 53.3478 45.2139 53.9547 44.9584 54.3061C44.7508 54.6096 44.3036 55.0408 43.9682 55.2644C43.4571 55.6157 43.1856 55.6636 41.7003 55.7115C40.1671 55.7595 39.9435 55.7275 39.2887 55.3921C38.7776 55.1206 38.4263 54.7533 38.043 54.1304C37.6597 53.4756 37.5319 53.0763 37.5319 52.5014C37.5319 52.0861 38.1069 49.4349 38.8255 46.5921C39.5283 43.7652 40.1831 41.3057 40.2789 41.13C40.3747 40.9544 40.6303 40.603 40.8698 40.3634C41.0934 40.1079 41.5087 39.7885 41.7642 39.6447C42.0197 39.517 42.4989 39.3413 42.8023 39.2774C43.1058 39.2135 44.2078 39.1656 47.1145 39.1337ZM61.8397 39.0858L64.1715 39.1656C66.104 39.2295 66.631 39.2934 67.1581 39.5649C67.5094 39.7406 67.9726 40.0919 68.1962 40.3475C68.4198 40.603 68.6913 41.0342 68.7871 41.2897C68.8989 41.5453 69.5697 44.0847 70.2724 46.9275C70.9751 49.7544 71.5501 52.2299 71.5501 52.4375C71.5501 52.6291 71.4702 53.0604 71.3904 53.3958C71.2946 53.7152 70.9911 54.2422 70.7196 54.5616C70.4321 54.8811 69.9211 55.2803 69.6016 55.44C69.1385 55.6636 68.6434 55.7435 67.5574 55.7435C66.6151 55.7435 65.9123 55.6636 65.529 55.488C65.1936 55.3602 64.7465 55.0887 64.5548 54.897C64.3472 54.7054 64.0278 54.2742 63.8681 53.9547C63.6764 53.5714 63.4688 52.5653 63.325 51.2397C63.1813 50.0738 62.8299 47.1032 62.5265 44.6437C62.223 42.1841 61.9356 39.9322 61.9036 39.6288L61.8397 39.0858ZM57.8949 39.2934L58.6615 45.3144C59.1886 49.5308 59.3642 51.5112 59.2844 51.9105C59.2045 52.2139 59.0288 52.725 58.8851 53.0284C58.7414 53.3319 58.39 53.8589 58.1025 54.1943C57.815 54.5457 57.1762 55.0088 56.6971 55.2324C55.9784 55.5838 55.5951 55.6636 54.541 55.6636C53.5508 55.6636 53.0876 55.5678 52.4648 55.2963C52.0336 55.0887 51.4267 54.6894 51.1392 54.4179C50.8357 54.1304 50.4365 53.5714 50.2129 53.1402C50.0052 52.725 49.7976 52.0861 49.7337 51.7028C49.6858 51.3036 49.9414 48.6843 50.3726 45.2346C50.7878 42.0564 51.1072 39.4211 51.1072 39.3732C51.1072 39.3253 52.6404 39.2934 57.8949 39.2934ZM47.945 56.7337L48.7755 57.4524C49.2227 57.8517 49.9893 58.3787 50.4684 58.6183C50.9475 58.8578 51.7461 59.1773 52.2252 59.321C52.7363 59.4647 53.6786 59.5765 54.4611 59.5765C55.2118 59.5765 56.2499 59.4647 56.7769 59.321C57.304 59.1932 58.1345 58.8578 58.6136 58.6023C59.0927 58.3468 59.8593 57.8197 61.0891 56.7337L61.5043 57.2288C61.7279 57.5163 62.3348 58.0273 62.8619 58.3627C63.3889 58.7141 64.2514 59.1293 64.8103 59.289C65.3534 59.4488 65.8005 59.6404 65.8005 59.7362C65.8005 59.8161 66.0561 61.6048 66.3755 63.6811C66.8706 67.003 66.9185 67.594 66.7748 68.3606C66.6789 68.8397 66.3915 69.5584 66.1359 69.9577C65.8804 70.3569 65.4013 70.868 65.0659 71.1076C64.7145 71.3471 64.0916 71.6666 63.6445 71.7943C63.2132 71.9221 62.5105 72.0339 62.0953 72.0339C61.3925 72.0339 61.3446 72.002 61.4085 71.6666C61.4564 71.4749 61.5363 70.9159 61.5842 70.4368C61.6481 69.9417 61.6002 69.1432 61.4884 68.6001C61.3766 68.0731 61.1051 67.2426 60.8655 66.7635C60.6419 66.2843 60.0989 65.5018 59.6517 65.0386C59.1247 64.4636 58.4858 64.0005 57.7352 63.6332C57.1283 63.3297 56.186 63.0263 55.659 62.9464C55.0521 62.8506 54.3014 62.8506 53.5827 62.9464C52.896 63.0422 52.0655 63.2978 51.4426 63.6172C50.8517 63.9206 50.0851 64.4956 49.59 65.0067C49.1109 65.5177 48.5199 66.3482 48.2165 67.003C47.7374 68.0252 47.6894 68.2488 47.6894 69.6383C47.6735 70.4687 47.7374 71.3631 47.945 72.1138L46.6992 72.0179C45.725 71.954 45.2459 71.8263 44.5751 71.4589C44.1119 71.2034 43.537 70.7722 43.3294 70.5167C43.1058 70.2451 42.7864 69.75 42.6107 69.3987C42.435 69.0473 42.2593 68.3925 42.2114 67.9613C42.1635 67.4662 42.3551 65.7254 42.7225 63.4096C43.0579 61.2215 43.3773 59.6085 43.4891 59.5446C43.6009 59.4647 43.7925 59.4168 43.9203 59.4168C44.0481 59.4168 44.6709 59.1772 45.2778 58.8738C45.9326 58.5544 46.7312 57.9794 47.1784 57.5163L47.945 56.7337ZM54.9403 66.7156C55.2437 66.7635 55.7388 66.9232 56.0423 67.0669C56.3297 67.2107 56.7929 67.562 57.0325 67.8495C57.288 68.137 57.5755 68.68 57.6713 69.0473C57.7671 69.4147 57.7991 70.0216 57.7352 70.3729C57.6713 70.7243 57.4956 71.2353 57.0165 72.0499L52.1453 71.97L51.778 71.3312C51.4746 70.8041 51.4107 70.5007 51.4586 69.7181C51.4905 68.9994 51.6023 68.6001 51.9058 68.1689C52.1134 67.8495 52.5127 67.4502 52.7842 67.2586C53.0397 67.0829 53.5029 66.8593 53.8223 66.7794C54.1258 66.6996 54.6209 66.6676 54.9403 66.7156Z" fill="#90D0BF"/>
</svg>
