<svg width="79" height="80" viewBox="0 0 79 80" fill="none" xmlns="http://www.w3.org/2000/svg">
<path d="M25.5065 0.864688C26.1504 0.732616 26.8438 0.584034 27.0749 0.534507C27.306 0.501489 28.4121 0.48498 29.5512 0.517998C30.905 0.551016 32.0441 0.683088 32.8531 0.897706C33.5299 1.07931 34.6525 1.45901 35.3294 1.75618C36.0063 2.03683 37.0794 2.61465 37.7232 3.02738C38.3671 3.4401 39.5062 4.41414 40.2821 5.20657C41.0581 5.9825 42.0486 7.18766 42.4613 7.86453C42.8906 8.54141 43.4519 9.66402 43.7325 10.3409C43.9967 11.0178 44.3599 12.1074 44.5085 12.7347C44.7231 13.5767 44.8056 14.5507 44.8056 16.2842C44.8056 18.0176 44.7231 18.9916 44.5085 19.8336C44.3599 20.4775 44.0297 21.468 43.7986 22.0623C43.5674 22.6567 43.0392 23.7132 42.6099 24.4396C42.1972 25.1495 41.2397 26.3877 39.1265 28.666L39.6548 28.8476C39.952 28.9631 41.025 29.4584 42.0156 29.9537C43.0061 30.4489 44.3929 31.2249 45.0698 31.6706C45.7466 32.1329 46.4895 32.6612 46.7042 32.8593C46.9188 33.0409 47.1994 33.4536 47.315 33.7343C47.4471 34.0314 47.5461 34.5597 47.5461 34.8899C47.5461 35.2696 47.4141 35.7484 47.1829 36.0951C46.9683 36.4087 46.5391 36.838 46.2254 37.0526C45.7631 37.3662 45.4825 37.4323 44.8221 37.3828C44.1287 37.3332 43.716 37.1351 42.3458 36.2271C41.4378 35.6163 40.0675 34.8238 39.2916 34.4607C38.5157 34.0975 37.294 33.6022 36.5676 33.3711C35.8412 33.1234 34.537 32.7767 33.6785 32.5786C32.4238 32.298 31.5323 32.2319 29.1385 32.2319C26.7117 32.2319 25.8697 32.298 24.516 32.5786C23.608 32.7767 22.1882 33.1729 21.3792 33.4536C20.5703 33.7508 19.1835 34.3451 18.3251 34.7908C17.4666 35.2366 16.0963 36.1116 15.2709 36.7224C14.4619 37.3332 13.1742 38.4558 12.4148 39.2318C11.6719 40.0077 10.5658 41.3119 9.97148 42.1209C9.39366 42.9298 8.46915 44.4982 7.94086 45.5878C7.39606 46.6774 6.76872 48.1632 6.53759 48.8896C6.30646 49.616 6.0093 50.6891 5.87723 51.2834C5.74516 51.8777 5.54705 53.0994 5.44799 54.0074C5.33243 55.0805 5.2829 58.3163 5.36545 70.8466L5.79468 71.6721C6.04232 72.1178 6.48806 72.7452 6.78523 73.0589C7.0989 73.356 7.6437 73.7688 8.0069 73.9504C8.3701 74.132 9.11301 74.3136 9.65781 74.3466C10.3842 74.4126 10.8795 74.3466 11.5563 74.0989C12.2002 73.8513 12.6955 73.5046 13.2898 72.8773C13.7355 72.382 14.2143 71.6886 14.3464 71.3419C14.5445 70.8301 14.6105 69.1627 14.6766 63.7477C14.7756 57.1606 14.7921 56.7974 15.1058 56.3682C15.2874 56.1206 15.7331 55.7574 16.0963 55.5758C16.4595 55.3942 17.0043 55.2456 17.285 55.2456C17.5822 55.2456 18.127 55.3942 18.4902 55.5758C18.8699 55.7574 19.3156 56.1701 19.5137 56.5168C19.8923 57.1259 19.8934 57.2589 19.9425 63.283L19.943 63.335C19.976 67.0661 19.9264 70.0377 19.8274 70.8136C19.7283 71.507 19.5137 72.481 19.3321 72.9598C19.167 73.4221 18.9854 73.9504 18.9194 74.1154C18.8203 74.3796 19.2 74.3961 25.0773 74.4456C31.1691 74.4786 31.3507 74.4951 31.813 74.8253C32.0606 75.0234 32.4238 75.3866 32.6054 75.6178C32.8531 75.9479 32.9356 76.3277 32.9356 77.0375C32.9356 77.7639 32.8531 78.1106 32.5889 78.4738C32.3908 78.7215 32.0276 79.0847 31.7965 79.2663C31.3507 79.5799 31.0536 79.5965 20.2071 79.646C10.7804 79.679 8.89839 79.646 7.89134 79.4314C7.23097 79.2828 6.27345 78.9856 5.77817 78.7545C5.2829 78.5234 4.42443 77.9786 3.87963 77.5658C3.35134 77.1366 2.57542 76.3442 2.16269 75.7994C1.76647 75.2546 1.23818 74.3631 0.990544 73.8183C0.726399 73.2735 0.412727 72.2499 0.264145 71.5565C0.0495272 70.4835 0 68.9976 0 62.7572C0 58.6134 0.0825454 54.5192 0.1816 53.6442C0.264145 52.7527 0.544799 51.1678 0.775926 50.1278C1.00705 49.0877 1.4528 47.4863 1.76647 46.5783C2.08014 45.6703 2.74051 44.1185 3.23578 43.1114C3.74756 42.1044 4.62254 40.5855 5.18385 39.727C5.76167 38.8686 6.78523 37.5313 7.4621 36.7554C8.13897 35.9795 9.24508 34.8569 9.92195 34.2295C10.5988 33.6187 11.8205 32.6447 12.6294 32.0503C13.4384 31.4725 14.9737 30.548 16.0138 30.0197C17.0539 29.4914 18.16 28.9631 18.9854 28.666L17.7142 27.2957C17.0043 26.5528 16.0798 25.3807 15.6506 24.7038C15.2214 24.0269 14.6601 22.9043 14.3794 22.2274C14.1153 21.5506 13.7521 20.4775 13.6035 19.8336C13.3889 18.9916 13.3063 18.0176 13.3063 16.2842C13.3063 14.5507 13.3889 13.5767 13.6035 12.7347C13.7521 12.1074 14.1153 11.0178 14.3794 10.3409C14.6601 9.66402 15.2214 8.54141 15.6506 7.86453C16.0633 7.17115 17.0704 5.96599 17.8958 5.12403C18.7378 4.29858 19.943 3.29152 20.6363 2.87879C21.3132 2.44956 22.4358 1.88825 23.1127 1.6076C23.7896 1.34345 24.8627 0.996761 25.5065 0.864688Z" fill="#344054"/>
<path d="M51.3432 38.1917C52.0201 37.8615 52.9941 37.4818 53.4894 37.3497C53.9847 37.2177 55.1073 37.1021 55.9658 37.1021C56.8572 37.0856 57.9633 37.1847 58.5247 37.3332C59.0695 37.4653 60.0765 37.8615 60.7534 38.1917C61.6944 38.6374 62.3217 39.1162 63.3123 40.1233C64.2038 41.0148 64.8476 41.8402 65.2439 42.6161C65.574 43.26 65.9702 44.2175 66.1188 44.7623C66.3335 45.4887 66.416 46.6443 66.5316 52.6041H68.6282C69.8004 52.6041 71.1541 52.6702 71.6494 52.7692C72.1446 52.8683 73.1187 53.1984 73.7955 53.5286C74.6705 53.9414 75.3309 54.4201 76.0243 55.1465C76.5691 55.6913 77.2625 56.5993 77.5431 57.1441C77.8403 57.6889 78.187 58.6464 78.3355 59.2903C78.5337 60.0662 78.5832 60.8256 78.5337 61.6016C78.4841 62.3445 77.9228 64.6062 76.9488 68.0401C76.1233 70.9457 75.3144 73.6532 75.1658 74.0659C75.0172 74.4786 74.6375 75.2215 74.3238 75.7168C73.9937 76.2121 73.3828 76.955 72.9701 77.3677C72.5409 77.7805 71.7154 78.3583 71.1376 78.6389C70.5598 78.9361 69.6353 79.2993 69.0905 79.4314C68.232 79.646 66.3665 79.679 43.1712 79.5965L42.1807 79.2167C41.6359 79.0186 40.7114 78.5234 40.117 78.1271C39.5227 77.7309 38.7303 77.0045 38.3506 76.5258C37.9709 76.0305 37.4756 75.2546 37.261 74.8088C37.0298 74.3631 36.1384 71.4575 35.2469 68.3703C34.2068 64.6888 33.6125 62.361 33.5629 61.6016C33.5134 60.8256 33.5629 60.0662 33.7611 59.2903C33.9096 58.6464 34.2563 57.6889 34.5535 57.1441C34.8341 56.5993 35.5275 55.6913 36.0723 55.1465C36.7657 54.4201 37.4261 53.9414 38.301 53.5286C38.9779 53.1984 39.952 52.8683 40.4472 52.7692C40.9425 52.6702 42.2962 52.6041 45.565 52.6041V49.7481C45.5815 48.0476 45.6641 46.3802 45.8127 45.5878C45.9613 44.7458 46.2914 43.7718 46.7372 42.8638C47.282 41.7577 47.7112 41.1798 48.7678 40.1233C49.7583 39.1492 50.4352 38.6374 51.3432 38.1917Z" fill="#344054"/>
<path d="M39.5388 59.1249C39.7369 58.8608 40.2157 58.4645 40.6284 58.2499L41.3548 57.8867L71.1207 57.9693L71.8306 58.4645C72.2103 58.7287 72.6725 59.224 72.8376 59.5376C73.0027 59.8513 73.1843 60.4126 73.2338 60.7758C73.2999 61.2876 73.0357 62.4762 71.9791 66.1413C71.2527 68.7332 70.5098 71.2921 70.3282 71.8369C70.1301 72.4477 69.7999 73.0255 69.4698 73.3557C69.1726 73.6529 68.6443 73.9996 68.2976 74.1316C67.7693 74.3628 66.1845 74.3958 56.0479 74.3958C45.9113 74.3958 44.3264 74.3628 43.7816 74.1316C43.4515 73.9996 42.9232 73.6529 42.626 73.3557C42.2958 73.0255 41.9656 72.4477 41.7675 71.8369C41.5859 71.2921 40.8595 68.7497 40.1166 66.1908C39.3902 63.6154 38.7959 61.3536 38.7959 61.1555C38.7959 60.9409 38.8784 60.5117 38.9775 60.198C39.0931 59.8843 39.3407 59.389 39.5388 59.1249Z" fill="#E9B940"/>
<path d="M24.2684 6.90652C25.0443 6.52681 26.1504 6.11408 26.7448 5.98201C27.3391 5.84994 28.3296 5.73438 28.9735 5.73438C29.6173 5.73438 30.6409 5.83343 31.2848 5.9655C31.9286 6.09757 33.0677 6.52681 33.8437 6.90652C34.9003 7.43481 35.5606 7.93008 36.5016 8.85459C37.4592 9.81212 37.9049 10.423 38.4332 11.496C38.8129 12.272 39.2421 13.4606 39.3907 14.1375C39.5723 14.996 39.6218 15.8379 39.5723 16.8615C39.5228 17.6704 39.3247 18.8261 39.1431 19.4204C38.9615 20.0147 38.5322 20.9722 38.1856 21.5666C37.8389 22.1609 37.0299 23.1514 36.4026 23.7953C35.5606 24.6373 34.8507 25.149 33.8437 25.6608C33.0677 26.0405 31.9286 26.4698 31.2848 26.6018C30.6409 26.7339 29.6504 26.8495 29.056 26.8495C28.4617 26.8495 27.5042 26.7339 26.9099 26.6184C26.3155 26.4863 25.358 26.1726 24.7637 25.9085C24.1694 25.6443 23.2779 25.1325 22.7826 24.7693C22.2873 24.4061 21.5279 23.6962 21.0822 23.201C20.6529 22.7057 20.0091 21.7152 19.6459 20.9888C19.2827 20.2624 18.8699 19.1563 18.7379 18.5124C18.6058 17.8685 18.4902 16.878 18.4902 16.2837C18.4902 15.6893 18.6058 14.6823 18.7379 14.0549C18.8699 13.4276 19.2992 12.272 19.6789 11.496C20.2072 10.4395 20.6859 9.7791 21.627 8.85459C22.568 7.89706 23.1953 7.43481 24.2684 6.90652Z" fill="#90D0BF"/>
<path d="M52.2678 44.0354C52.6475 43.6062 53.3244 43.1109 53.9022 42.8303C54.6781 42.4671 55.1239 42.368 55.9658 42.368C56.5602 42.368 57.3691 42.4671 57.7818 42.5991C58.1945 42.7477 58.9209 43.21 59.3997 43.6392C59.9445 44.118 60.4563 44.7948 60.7204 45.3396C61.1497 46.2146 61.1662 46.3632 61.2487 52.6036H50.848L50.8975 49.4339C50.9306 46.6604 50.9801 46.1486 51.2773 45.5047C51.4589 45.092 51.9046 44.4316 52.2678 44.0354Z" fill="#90D0BF"/>
<path d="M46.7699 61.8324C46.9845 61.5353 47.4138 61.2051 47.7275 61.0895C48.0411 60.974 48.5364 60.8749 48.8171 60.8584C49.1142 60.8584 49.6095 60.9575 49.8901 61.073C50.1873 61.1886 50.633 61.5518 50.8807 61.8655C51.1283 62.1791 51.376 62.6579 51.442 62.922C51.4915 63.1862 51.508 63.698 51.442 64.0446C51.376 64.4574 51.1283 64.8701 50.6826 65.3158C50.2368 65.7616 49.8241 66.0092 49.3949 66.0753C49.0647 66.1248 48.5364 66.1248 48.2392 66.0753C47.9586 66.0257 47.4138 65.6956 47.0671 65.3654C46.6213 64.9196 46.3902 64.5399 46.3077 64.0777C46.2416 63.7145 46.2416 63.1697 46.2912 62.889C46.3407 62.5919 46.5718 62.1131 46.7699 61.8324Z" fill="#344054"/>
<path d="M61.0833 62.1791C61.3144 61.8655 61.7602 61.4362 62.0738 61.2216C62.5361 60.9244 62.8167 60.8584 63.4771 60.9244C63.9394 60.9575 64.4842 61.1391 64.7153 61.3207C64.9464 61.4857 65.2931 61.882 65.5077 62.1956C65.7554 62.5753 65.8874 63.0046 65.8874 63.4999C65.8874 63.9951 65.7554 64.4244 65.5077 64.8041C65.2931 65.1177 64.9464 65.514 64.7153 65.679C64.4842 65.8441 64.0054 66.0422 63.6422 66.0918C63.1304 66.1743 62.8002 66.0918 62.1729 65.7946C61.6776 65.547 61.2484 65.1838 61.0338 64.8206C60.8191 64.4574 60.6871 63.9621 60.6871 63.4999C60.6871 62.9716 60.8026 62.5919 61.0833 62.1791Z" fill="#344054"/>
</svg>
