<svg width="75" height="75" viewBox="0 0 75 75" fill="none" xmlns="http://www.w3.org/2000/svg">
<path fill-rule="evenodd" clip-rule="evenodd" d="M59.4125 0.501099C59.5716 0.486643 59.9185 0.616748 60.1787 0.775766C60.4245 0.934784 61.3063 1.70096 62.1158 2.48159C62.9254 3.24777 64.0963 4.56328 64.7179 5.40174C65.4118 6.32693 66.2069 7.64244 66.7707 8.79894C67.2767 9.83978 67.8549 11.2276 68.0573 11.907C68.2597 12.5865 68.5199 13.7574 68.65 14.5091C68.7801 15.2608 68.8813 16.692 68.8813 17.6895C68.8813 18.687 68.7801 20.0892 68.65 20.7976C68.5344 21.5059 68.3031 22.5467 68.1296 23.1105C67.9706 23.6743 67.6236 24.6429 67.3634 25.279C67.1032 25.915 66.5683 26.9848 66.178 27.6642C65.8022 28.3437 65.0938 29.4134 64.6168 30.0495C64.1397 30.6856 63.0844 31.8565 60.8003 34.0972L60.7859 37.0607H61.1762C61.4075 37.0607 62.1303 36.9595 62.8097 36.8439C63.4892 36.7282 65.0071 36.5403 66.2069 36.4102C67.3923 36.2801 69.4451 36.15 70.7606 36.0922C72.4665 36.0199 73.276 36.0488 73.5796 36.1645C73.8109 36.2656 74.1289 36.5548 74.2879 36.815C74.4614 37.1186 74.5337 37.4221 74.4759 37.7113C74.418 37.9426 74.2157 38.304 73.9988 38.5064C73.6952 38.8099 73.4639 38.8678 72.6688 38.9111C72.134 38.9256 70.5582 39.0123 69.1704 39.0991C67.7827 39.1858 65.7299 39.3737 64.6168 39.5183C63.5036 39.6773 62.0436 39.8941 61.3641 40.0243C60.6847 40.1544 59.4125 40.4146 58.5452 40.617C57.6778 40.8193 55.9431 41.2675 54.7143 41.6289C53.4855 41.9903 51.7219 42.5685 50.8111 42.901C49.9004 43.248 48.4981 43.7973 47.703 44.1443C46.908 44.4767 45.1877 45.2863 43.8722 45.9368C42.5567 46.5873 40.6051 47.6571 39.5353 48.2932C38.4656 48.9437 36.7742 50.0279 35.7767 50.7218C34.7792 51.4157 33.3481 52.4855 32.5964 53.0782C31.8446 53.6853 30.5436 54.7695 29.7051 55.5068C28.8667 56.2296 27.3054 57.733 26.2356 58.8317C25.1659 59.9448 23.6914 61.5495 22.983 62.4024C22.2602 63.2698 21.2338 64.5708 20.6989 65.2936C20.1496 66.0309 19.2389 67.3464 18.6606 68.2138C18.0824 69.0811 17.056 70.7147 16.3765 71.8278C15.6971 72.9409 14.9598 73.9962 14.7285 74.1842C14.4972 74.3576 14.1648 74.5167 13.9768 74.5022C13.8033 74.5022 13.4709 74.3866 13.2251 74.2564C12.9938 74.1119 12.7191 73.7938 12.6324 73.5625C12.5312 73.3312 12.5023 72.9698 12.5457 72.7675C12.589 72.5651 13.3841 71.1773 14.3093 69.6594C15.249 68.1415 16.391 66.3634 16.8536 65.6839C17.6053 64.5997 17.6776 64.4407 17.4463 64.3251C17.3162 64.2528 16.4488 63.9347 15.5381 63.6312C14.6273 63.3276 13.095 62.8794 12.1409 62.6337C11.1868 62.4024 9.62552 62.0844 8.67141 61.9253C7.7173 61.7663 5.76572 61.5639 4.33456 61.4772C2.9034 61.3905 1.54452 61.2459 1.31322 61.1447C1.08193 61.058 0.807259 60.7833 0.69161 60.552C0.561504 60.2918 0.503679 59.9448 0.561504 59.6846C0.604873 59.4533 0.807259 59.0919 1.0241 58.8895C1.38551 58.5426 1.44333 58.5281 3.43828 58.5571C4.56586 58.5715 6.3006 58.6727 7.29808 58.8028C8.29555 58.9185 9.95801 59.1931 10.9844 59.41C12.0108 59.6124 13.7166 60.0316 14.743 60.3352C15.7694 60.6387 17.2728 61.1447 19.5135 62.041L20.2363 61.1592C20.6267 60.6677 21.2483 59.9448 21.5952 59.5401C21.9422 59.1498 22.9975 58.0077 25.6285 55.2032L23.9371 54.4515C23.0119 54.0467 21.7398 53.5118 21.1037 53.2661C20.4676 53.0203 19.2389 52.6011 18.357 52.3264C17.4752 52.0518 16.1452 51.6615 15.3935 51.4591C14.6418 51.2711 13.1673 50.9387 12.1409 50.7363C11.1145 50.5483 9.40868 50.2737 8.38229 50.1436C7.3559 50.0135 5.38986 49.8544 4.01653 49.8111C1.86256 49.7243 1.4867 49.6665 1.13975 49.4208C0.922908 49.2617 0.69161 48.9292 0.604873 48.6979C0.532592 48.4666 0.518136 48.1197 0.561504 47.9318C0.604873 47.7583 0.807259 47.4547 1.00965 47.2523C1.34214 46.9054 1.42887 46.8909 3.1347 46.8909C4.11772 46.8909 5.88137 46.9921 7.08123 47.1078C8.26664 47.2234 9.90019 47.4113 10.6953 47.5415C11.4904 47.6716 12.7625 47.9029 13.5142 48.0619C14.2659 48.2209 15.6393 48.5389 16.55 48.7847C17.4608 49.0304 18.8341 49.4208 19.5858 49.6665C20.3375 49.9123 21.7687 50.4327 22.7662 50.823C23.7636 51.2133 25.3394 51.8928 27.9704 53.1071L29.5895 51.7627C30.4858 51.0254 31.9747 49.8689 32.8855 49.2039C33.7962 48.5389 34.6058 47.9607 34.6636 47.9173C34.7214 47.8739 33.8396 47.3246 32.712 46.7175C31.57 46.1103 29.8352 45.2429 28.8378 44.7948C27.8403 44.3466 26.1778 43.6527 25.1514 43.2624C24.125 42.8577 22.3614 42.2505 21.2483 41.9035C20.1351 41.5566 18.2414 41.0506 17.056 40.776C15.8561 40.4868 13.9045 40.0965 12.7191 39.8941C11.5193 39.6918 9.56769 39.4315 8.38229 39.3159C7.18243 39.2002 5.17302 39.0557 3.90088 39.0123C2.49863 38.9545 1.44333 38.8388 1.22649 38.7232C1.0241 38.622 0.778347 38.3618 0.677153 38.1305C0.561504 37.8992 0.518136 37.5089 0.561504 37.2776C0.604873 37.0463 0.807259 36.6849 1.0241 36.4825C1.37105 36.15 1.4867 36.1211 2.86003 36.1211C3.66958 36.1211 5.23084 36.1645 8.31001 36.3379V31.5674L7.11015 30.3675C6.45962 29.7025 5.59225 28.6762 5.18748 28.0835C4.76825 27.4908 4.20446 26.5656 3.92979 26.0018C3.64067 25.438 3.23589 24.4983 3.03351 23.9056C2.83112 23.3129 2.57091 22.301 2.45526 21.6649C2.32516 21.0289 2.23842 19.829 2.23842 18.9905C2.23842 18.1521 2.32516 16.9522 2.45526 16.3161C2.57091 15.6801 2.81667 14.7115 3.0046 14.1477C3.19253 13.5984 3.5973 12.6443 3.88642 12.0516C4.19 11.4589 4.6526 10.6493 4.91281 10.2446C5.18748 9.85424 5.79463 9.05915 6.25723 8.50981C6.73428 7.96048 7.54383 7.12202 8.07871 6.67388C8.59913 6.21128 9.17738 5.79205 9.35085 5.74869C9.53878 5.70532 9.85682 5.70532 10.0737 5.74869C10.305 5.79205 10.9121 6.21128 11.4325 6.67388C11.9674 7.12202 12.777 7.96048 13.254 8.50981C13.7166 9.05915 14.3238 9.85424 14.5984 10.2446C14.8586 10.6493 15.3212 11.4589 15.6248 12.0516C15.9139 12.6443 16.3187 13.5984 16.5067 14.1477C16.6946 14.7115 16.9403 15.6801 17.056 16.3161C17.1861 16.9522 17.2728 18.1521 17.2728 18.9905C17.2728 19.829 17.1861 21.0289 17.056 21.6649C16.9403 22.301 16.6801 23.3129 16.4777 23.9056C16.2754 24.4983 15.8706 25.438 15.5815 26.0018C15.3068 26.5656 14.743 27.4908 14.3238 28.0835C13.919 28.6762 13.0516 29.7025 11.2012 31.5674V36.6993L12.5312 36.9017C13.2685 37.0029 13.9624 37.1186 14.0491 37.1475C14.1937 37.1908 14.237 36.5548 14.237 34.3141C14.237 32.0878 14.2804 31.3361 14.4394 31.0325C14.5551 30.8012 16.5645 28.734 18.8919 26.4065C22.4337 22.8792 23.2143 22.1709 23.6335 22.0986C23.9082 22.0552 27.8836 22.0263 32.4518 22.0552C39.9545 22.0986 40.793 22.1275 41.1255 22.3444C41.3279 22.4745 43.3517 24.5128 49.7992 31.1337V35.6151C49.7992 38.0871 49.8426 40.0965 49.9004 40.0965C49.9727 40.0965 50.7967 39.8363 51.7508 39.5183C52.7049 39.1858 54.2372 38.7377 55.148 38.4919C56.0587 38.2461 57.0562 37.9859 57.8946 37.7835V34.0249L56.3045 32.4348C55.3648 31.4951 54.2951 30.2374 53.6879 29.3701C53.1386 28.5461 52.3579 27.2305 51.9676 26.4355C51.5773 25.6404 51.0569 24.3682 50.8256 23.6165C50.5798 22.8648 50.2907 21.6216 50.1606 20.8698C50.016 20.0603 49.9293 18.687 49.9293 17.5449C49.9293 16.186 50.016 15.1307 50.2184 14.0754C50.3774 13.237 50.6666 12.0949 50.8545 11.5456C51.0424 10.9963 51.4038 10.0711 51.6496 9.52175C51.8953 8.97241 52.4013 7.98939 52.7627 7.35332C53.1386 6.71725 53.7457 5.80651 54.1071 5.32946C54.4685 4.8524 55.1624 4.04286 55.6395 3.52244C56.1021 3.00202 56.955 2.16356 57.5188 1.64314C58.0826 1.13717 58.6753 0.674573 58.8343 0.616748C58.9933 0.558924 59.2535 0.501099 59.4125 0.501099ZM73.2182 46.862C73.4206 46.8909 73.7386 47.0355 73.941 47.18C74.1434 47.3102 74.3602 47.6137 74.4325 47.845C74.5192 48.1342 74.5048 48.4088 74.3602 48.7558C74.2446 49.0304 74.0277 49.3485 73.8687 49.4497C73.6663 49.5942 72.7267 49.6954 70.8329 49.7822C69.315 49.8544 67.3056 50.0135 66.3515 50.1436C65.3974 50.2737 64.0674 50.4761 63.388 50.5917C62.7085 50.7218 61.3497 51.0109 60.3522 51.2567C59.3547 51.5024 57.7645 51.9361 56.8104 52.2397C55.8563 52.5433 54.9456 52.8035 54.7866 52.818C54.6275 52.8324 54.3818 52.8469 54.2372 52.8324C54.1071 52.8324 53.7891 52.6156 53.5578 52.3843C53.2398 52.0662 53.1241 51.8205 53.1241 51.4446C53.1241 51.0832 53.2398 50.823 53.5144 50.5194C53.818 50.2158 54.3673 49.9701 55.6539 49.5653C56.608 49.2762 58.1115 48.8425 58.9789 48.6112C59.8462 48.3799 61.6099 48.0041 62.882 47.7728C64.1542 47.5415 65.8744 47.2668 66.7129 47.18C67.5514 47.0789 69.2716 46.9487 70.5438 46.9054C71.8159 46.8476 73.0158 46.8331 73.2182 46.862ZM48.2524 53.0059C48.5126 53.0637 48.8017 53.1938 48.9029 53.295C49.0041 53.3962 49.1487 53.6709 49.2065 53.9022C49.2643 54.1335 49.2932 54.466 49.2643 54.625C49.2354 54.784 49.0475 55.0876 48.8451 55.3044C48.556 55.608 48.3247 55.7092 47.9054 55.7092C47.4718 55.7092 47.2404 55.608 46.908 55.2755C46.5899 54.9575 46.4743 54.7117 46.4743 54.2925C46.4598 53.9166 46.5755 53.642 46.8212 53.3673C47.0236 53.1504 47.3272 52.9625 47.4862 52.9336C47.6452 52.9047 47.9922 52.9336 48.2524 53.0059ZM41.9206 56.5043C42.1519 56.5476 42.5277 56.7645 42.7446 57.0102C42.9759 57.2415 43.1494 57.6029 43.1494 57.8053C43.1494 58.0077 43.0771 58.3258 43.0048 58.5281C42.9325 58.7305 42.2964 59.2943 41.5881 59.7858C40.8942 60.2773 39.8823 61.0435 39.3185 61.4772C38.7547 61.9253 37.5259 62.9662 36.5863 63.8046C35.6322 64.6431 34.2155 66.002 33.4493 66.8404C32.6686 67.6789 31.5989 68.8788 31.0785 69.5148C30.5436 70.1509 29.5461 71.4375 28.8522 72.3916C28.1728 73.3313 27.5222 74.1697 27.4066 74.2709C27.2909 74.3576 26.9151 74.4299 26.5681 74.4299C26.0477 74.4299 25.8598 74.3576 25.5707 74.0251C25.3394 73.7649 25.2237 73.4517 25.2237 73.0855C25.2093 72.6518 25.3972 72.2904 26.1778 71.1773C26.7127 70.4256 27.4644 69.3847 27.8692 68.8643C28.274 68.3439 29.2136 67.2452 29.9364 66.4067C30.6737 65.5683 32.0037 64.166 32.9144 63.2842C33.8107 62.4024 34.9961 61.3037 35.5599 60.8267C36.1237 60.3496 37.0199 59.6124 37.5837 59.1642C38.1475 58.7305 39.0438 58.0511 39.6076 57.6463C40.1714 57.2415 40.8219 56.8079 41.0532 56.6777C41.3134 56.5332 41.6604 56.4609 41.9206 56.5043ZM71.946 58.4848C72.7267 58.4703 73.5073 58.5281 73.6808 58.6004C73.8687 58.6872 74.1289 58.9618 74.2879 59.222C74.4614 59.5256 74.5337 59.8292 74.4759 60.1183C74.418 60.3496 74.2157 60.711 73.9988 60.9134C73.6519 61.2604 73.5073 61.2748 71.4401 61.3905C70.2257 61.4483 68.491 61.5928 67.5803 61.7229C66.6695 61.8386 65.1661 62.0988 64.2554 62.3012C63.3446 62.5036 61.9135 62.865 61.075 63.0963C60.2365 63.342 58.8777 63.8046 58.0392 64.1227C57.2007 64.4407 55.7118 65.0912 54.7143 65.5538C53.7168 66.0309 52.3868 66.7248 51.7508 67.0862C51.1147 67.4476 50.016 68.1415 49.2932 68.6185C48.5704 69.0956 47.3416 69.9919 46.5466 70.6135C45.7515 71.2351 44.5227 72.2904 43.7999 72.9554C43.0771 73.6204 42.3398 74.2564 42.1374 74.3432C41.935 74.4588 41.5881 74.5022 41.3423 74.4444C41.111 74.401 40.7496 74.1986 40.5472 73.9818C40.287 73.7071 40.1858 73.4469 40.1858 73.0277C40.1858 72.4783 40.2726 72.3627 41.7182 70.9749C42.5567 70.1798 43.9155 68.9799 44.754 68.3439C45.578 67.6934 46.9369 66.7103 47.7753 66.161C48.6138 65.6117 49.8715 64.8166 50.5943 64.4118C51.3171 64.007 52.6471 63.3276 53.5578 62.8939C54.4685 62.4602 56.1021 61.7808 57.1718 61.376C58.2416 60.9712 59.8462 60.4364 60.7136 60.1906C61.581 59.9448 63.2434 59.569 64.3999 59.3377C65.5564 59.1064 67.1755 58.8462 68.014 58.7594C68.8524 58.6727 69.7631 58.5715 70.0378 58.5426C70.3125 58.5281 71.1799 58.4848 71.946 58.4848Z" fill="#344054"/>
<path fill-rule="evenodd" clip-rule="evenodd" d="M59.4128 3.76855L60.6994 5.12743C61.3933 5.87915 62.3185 6.97782 62.7377 7.57053C63.1569 8.16323 63.7207 9.11733 64.0098 9.66667C64.2845 10.2305 64.6315 10.9388 64.7616 11.2568C64.8917 11.5749 65.1374 12.2543 65.2964 12.7747C65.4555 13.2952 65.6723 14.2348 65.7879 14.8709C65.9036 15.507 65.9903 16.7502 65.9903 17.6176C65.9903 18.4994 65.8891 19.8004 65.7735 20.5088C65.6434 21.2316 65.3832 22.3014 65.1808 22.8941C64.9784 23.4868 64.5592 24.4987 64.2556 25.1348C63.952 25.7708 63.3882 26.7394 63.0124 27.3032C62.651 27.867 62.0583 28.6621 61.7113 29.0813C61.3644 29.4861 61.003 29.833 60.9307 29.833C60.8439 29.833 60.7861 27.8381 60.7861 18.4126L60.4247 18.0512C60.2223 17.8489 59.9187 17.6465 59.7308 17.6031C59.5573 17.5597 59.2104 17.5742 58.9791 17.6465C58.7478 17.7332 58.4153 17.9645 58.2563 18.1813C57.9816 18.5572 57.9672 18.8319 57.8949 29.9776L57.2299 29.2259C56.8685 28.8066 56.2324 27.9393 55.7987 27.3032C55.3795 26.6671 54.8302 25.7275 54.57 25.207C54.3097 24.6866 53.905 23.7181 53.6737 23.0386C53.4568 22.3592 53.1677 21.2605 53.0376 20.5811C52.9075 19.8872 52.8063 18.6006 52.8063 17.6176C52.8063 16.6635 52.9075 15.3624 53.0376 14.7263C53.1533 14.0903 53.399 13.1217 53.558 12.5579C53.7315 12.0086 54.1218 11.0255 54.4254 10.3895C54.729 9.75341 55.3651 8.65474 55.8276 7.93193C56.3047 7.22358 57.3022 5.9948 58.0539 5.19971L59.4128 3.76855ZM9.7414 9.14625C9.78477 9.14625 10.2185 9.55102 10.71 10.057C11.187 10.563 11.9243 11.4881 12.3291 12.1242C12.7483 12.7603 13.2687 13.7722 13.5 14.3649C13.7313 14.9576 14.0204 15.9551 14.1505 16.5623C14.2662 17.1839 14.3818 18.2681 14.3818 18.9909C14.3818 19.6992 14.2806 20.7545 14.1794 21.3328C14.0638 21.911 13.7747 22.9085 13.5289 23.5446C13.2832 24.1807 12.676 25.3227 11.2738 27.4477L11.1292 17.2272L10.6232 16.7936C10.1895 16.4177 10.0305 16.3599 9.61129 16.4322C9.32217 16.49 8.93185 16.6924 8.38252 17.2562L8.23796 27.4477L7.32722 26.0744C6.82125 25.3227 6.2141 24.1807 5.96834 23.5446C5.72259 22.9085 5.43346 21.911 5.33227 21.3328C5.21662 20.7545 5.12988 19.6992 5.12988 18.9909C5.12988 18.2681 5.23108 17.1839 5.34673 16.5623C5.47683 15.9551 5.76595 14.9576 5.99725 14.3649C6.22855 13.7722 6.76343 12.7603 7.1682 12.1242C7.57297 11.4881 8.29578 10.563 8.78729 10.057C9.26435 9.56548 9.68357 9.1607 9.7414 9.14625ZM39.6078 24.9179L42.1666 27.4767C43.5833 28.8934 44.6964 30.0932 44.6386 30.1511C44.5807 30.2089 41.8341 30.2667 32.5243 30.2667L29.9511 27.6935C28.5344 26.2913 27.4213 25.0769 27.4791 25.0191C27.5369 24.9613 30.2836 24.9179 39.6078 24.9179ZM23.7639 25.6407C23.8072 25.6407 24.8336 26.6237 26.048 27.8381C27.2767 29.0524 28.2164 30.0932 28.1586 30.1511C28.1007 30.2089 26.1347 30.2667 23.7783 30.2667C21.4364 30.2667 19.4559 30.2233 19.3981 30.1655C19.3258 30.0932 20.2799 29.0524 21.4943 27.8381C22.7086 26.6237 23.735 25.6407 23.7639 25.6407ZM17.1285 33.1579H30.4282V37.7116C30.4282 40.2125 30.3848 42.2653 30.3559 42.2653C30.3125 42.2653 29.8499 42.0629 28.4043 41.3979V38.8247C28.4043 36.5118 28.3754 36.2226 28.1152 35.789C27.9128 35.4709 27.6526 35.283 27.2767 35.1818C26.9731 35.0951 25.3974 35.0372 23.7783 35.0372C22.1448 35.0372 20.5691 35.0951 20.2655 35.1818C19.9041 35.283 19.6294 35.4709 19.4415 35.789C19.2246 36.1504 19.1524 36.5118 19.1524 38.2899L18.6753 38.1742C18.4151 38.1164 17.967 38.0007 17.1285 37.7839V33.1579ZM33.3194 33.1579H46.8793L46.8359 41.2823L44.5952 42.3087C43.352 42.8869 41.5016 43.8121 40.4752 44.3759C39.4344 44.9397 38.3357 45.5613 37.4394 46.0528L36.3552 45.4168C35.748 45.0554 34.8228 44.5205 33.3194 43.7109V33.1579ZM22.0147 38.073H25.5131V39.1572C25.5131 40.1113 25.4842 40.227 25.2529 40.1692C25.1083 40.1258 24.3566 39.88 22.1159 39.1283L22.0147 38.073Z" fill="#E9B940"/>
<path d="M58.2705 12.6585C58.4006 12.4706 58.6463 12.2682 58.8198 12.1959C58.9788 12.1237 59.239 12.0658 59.3836 12.0658C59.5137 12.0514 59.8317 12.1526 60.063 12.2682C60.2943 12.3839 60.569 12.6152 60.6413 12.7742C60.7136 12.9332 60.7859 13.2512 60.7859 13.497C60.7859 13.7427 60.7136 14.0608 60.6413 14.2198C60.569 14.3788 60.2799 14.6101 60.0341 14.7402C59.7306 14.8848 59.3836 14.9426 59.0945 14.8848C58.8054 14.8414 58.5018 14.639 58.3283 14.4077C58.1548 14.1764 58.0247 13.7861 58.0392 13.497C58.0392 13.2223 58.1404 12.8465 58.2705 12.6585Z" fill="#344054"/>
</svg>
